<svg width="256" height="256" viewBox="0 0 256 256" xmlns="http://www.w3.org/2000/svg">
  <!-- Background -->
  <rect width="256" height="256" fill="#0f1923" rx="32"/>

  <!-- Outer frame -->
  <path d="M128 40 L200 80 L200 176 L128 216 L56 176 L56 80 Z"
        fill="none"
        stroke="#ff4654"
        stroke-width="6"
        stroke-linejoin="miter"/>

  <!-- Inner crosshair design -->
  <circle cx="128" cy="128" r="45"
          fill="none"
          stroke="#ff4654"
          stroke-width="4"/>

  <!-- Horizontal line -->
  <line x1="75" y1="128" x2="181" y2="128"
        stroke="#ff4654"
        stroke-width="3"/>

  <!-- Vertical line -->
  <line x1="128" y1="75" x2="128" y2="181"
        stroke="#ff4654"
        stroke-width="3"/>

  <!-- Corner markers -->
  <path d="M 100 100 L 100 110 M 100 100 L 110 100"
        stroke="#53b9ea"
        stroke-width="3"
        stroke-linecap="round"/>
  <path d="M 156 100 L 156 110 M 156 100 L 146 100"
        stroke="#53b9ea"
        stroke-width="3"
        stroke-linecap="round"/>
  <path d="M 100 156 L 100 146 M 100 156 L 110 156"
        stroke="#53b9ea"
        stroke-width="3"
        stroke-linecap="round"/>
  <path d="M 156 156 L 156 146 M 156 156 L 146 156"
        stroke="#53b9ea"
        stroke-width="3"
        stroke-linecap="round"/>

  <!-- Center dot -->
  <circle cx="128" cy="128" r="6" fill="#ff4654"/>

  <!-- Small accent lines -->
  <line x1="56" y1="90" x2="70" y2="90"
        stroke="#ff4654"
        stroke-width="2"/>
  <line x1="56" y1="166" x2="70" y2="166"
        stroke="#ff4654"
        stroke-width="2"/>
  <line x1="186" y1="90" x2="200" y2="90"
        stroke="#ff4654"
        stroke-width="2"/>
  <line x1="186" y1="166" x2="200" y2="166"
        stroke="#ff4654"
        stroke-width="2"/>
</svg>
